<svg xmlns="http://www.w3.org/2000/svg" xmlns:xlink="http://www.w3.org/1999/xlink" width="500" zoomAndPan="magnify" viewBox="0 0 375 374.999991" height="500" preserveAspectRatio="xMidYMid meet" version="1.0"><defs><g/></defs><g fill="#efc75e" fill-opacity="1"><g transform="translate(98.754168, 208.550011)"><g><path d="M 0 0 L 107.058594 0 L 118.574219 -36.359375 L 116.957031 -36.359375 C 109.484375 -17.777344 87.464844 -3.636719 67.667969 -3.636719 L 32.117188 -3.636719 L 32.117188 -58.78125 C 39.792969 -69.488281 50.5 -64.035156 60.398438 -60.800781 C 78.171875 -54.742188 90.292969 -59.183594 97.160156 -79.183594 L 95.542969 -79.992188 C 87.867188 -68.273438 76.757812 -73.929688 66.859375 -77.363281 C 50.703125 -82.820312 39.1875 -79.789062 32.117188 -64.4375 L 32.117188 -134.53125 L 68.882812 -134.53125 C 85.242188 -134.53125 104.433594 -123.21875 110.695312 -107.664062 L 112.511719 -107.664062 L 104.027344 -138.167969 L 0 -138.167969 L 0 -136.347656 C 8.6875 -136.753906 12.929688 -130.894531 12.929688 -109.484375 L 12.929688 -28.480469 C 12.929688 -7.070312 8.6875 -1.414062 0 -1.816406 Z M 0 0 "/></g></g></g><g fill="#efc75e" fill-opacity="1"><g transform="translate(172.193871, 276.604515)"><g><path d="M 77.566406 -138.167969 L 57.164062 -138.167969 L 12.320312 -10.503906 C 10.300781 -4.847656 6.464844 -1.414062 0 -1.617188 L 0 0 C 9.492188 0 24.238281 0 34.136719 0 L 34.136719 -1.617188 C 27.671875 -1.414062 23.835938 -3.03125 21.816406 -8.886719 C 21.410156 -10.300781 20.804688 -11.917969 20.402344 -13.332031 C 19.191406 -16.765625 19.390625 -19.796875 20.402344 -23.230469 L 24.644531 -34.542969 C 29.085938 -47.265625 45.449219 -40.398438 53.328125 -37.570312 C 69.488281 -32.320312 81 -35.347656 88.070312 -50.296875 L 101.808594 -11.3125 C 104.027344 -4.445312 100.796875 -1.414062 93.929688 -1.617188 L 93.929688 0 L 134.730469 0 L 134.730469 -1.617188 C 127.460938 -1.414062 124.027344 -5.050781 122.007812 -11.3125 Z M 86.859375 -54.335938 C 79.386719 -46.257812 69.082031 -51.308594 59.792969 -54.335938 C 46.460938 -58.78125 36.359375 -57.367188 29.289062 -48.277344 L 59.183594 -132.914062 Z M 86.859375 -54.335938 "/></g></g></g></svg>